# xmcd
#
# Track frame offsets:
#	150
#	13680
#	33011
#	51797
#	64327
#	77871
#	103200
#	117538
#	153605
#	166439
#	186207
#	205028
#	234944
#	253559
#	270905
#
# Disc length: 3756
#
# Revision: 3
# Processed by: cddbd v1.5.1PL0 Copyright (c) Steve Scherf et al.
# Submitted via: ExactAudioCopy v0.95a5
# Normalized: r2:TDELIM( - )
#
DISCID=c60eaa0f
DTITLE=Various Artist - Soul Classics CD04
DYEAR=1998
DGENRE=Soul
TTITLE0=The Temptations - My Girl
TTITLE1=J.J. Barnes - Open The Door To Your Heart
TTITLE2=Ohio Players - Over The Rainbouw
TTITLE3=Percy Sledge - Cover Me
TTITLE4=Joe Tex - I Believe I'm Gonna Make It
TTITLE5=Enchantment - Gloria
TTITLE6=Barry White - Come On In Love
TTITLE7=Charles Brimmer - God Blessed Our Love
TTITLE8=Roscoe Robinson - That's Enough
TTITLE9=Billy Calvin - Whishing On A Star
TTITLE10=Phyllis Nelson - Move Closer
TTITLE11=Norma Jenkins - Love Jones
TTITLE12=The Independents - The First Time We Met
TTITLE13=Percy Sledge - Try A Little Tenderness
TTITLE14=Clarence Carter - Woman Don't Go Astray
EXTD=
EXTT0=
EXTT1=
EXTT2=
EXTT3=
EXTT4=
EXTT5=
EXTT6=
EXTT7=
EXTT8=
EXTT9=
EXTT10=
EXTT11=
EXTT12=
EXTT13=
EXTT14=
PLAYORDER=
